<svg data-v-423bf9ae="" xmlns="http://www.w3.org/2000/svg" viewBox="0 0 247.8134119974083 60" class="font"><!----><!----><!----><g data-v-423bf9ae="" id="cef466fd-7fbc-4c50-852c-51f87436a16e" fill="white" transform="matrix(5.830904006958008,0,0,5.830904006958008,-5.48105525970459,-12.65306282043457)"><path d="M0.94 12.29L0.94 2.17L2.17 2.17L2.17 12.29L0.94 12.29ZM7 12.46L7 12.46Q5.31 12.46 4.45 11.52L4.45 11.52L4.45 11.52Q3.60 10.57 3.60 8.61L3.60 8.61L3.60 8.61Q3.60 6.65 4.45 5.71L4.45 5.71L4.45 5.71Q5.31 4.76 7 4.76L7 4.76L7 4.76Q8.69 4.76 9.55 5.71L9.55 5.71L9.55 5.71Q10.40 6.65 10.40 8.61L10.40 8.61L10.40 8.61Q10.40 10.57 9.55 11.52L9.55 11.52L9.55 11.52Q8.69 12.46 7 12.46L7 12.46ZM7 11.44L7 11.44Q8.12 11.44 8.62 10.79L8.62 10.79L8.62 10.79Q9.13 10.14 9.13 8.67L9.13 8.67L9.13 8.55L9.13 8.55Q9.13 7.08 8.62 6.43L8.62 6.43L8.62 6.43Q8.12 5.78 7 5.78L7 5.78L7 5.78Q5.88 5.78 5.38 6.43L5.38 6.43L5.38 6.43Q4.87 7.08 4.87 8.55L4.87 8.55L4.87 8.67L4.87 8.67Q4.87 10.14 5.38 10.79L5.38 10.79L5.38 10.79Q5.88 11.44 7 11.44L7 11.44ZM11.83 12.29L11.83 2.17L13.06 2.17L13.06 12.29L11.83 12.29ZM15.27 12.29L15.27 10.78L16.67 10.78L16.67 12.29L15.27 12.29ZM21.63 12.46L21.63 12.46Q19.95 12.46 19.17 11.53L19.17 11.53L19.17 11.53Q18.38 10.60 18.38 8.61L18.38 8.61L18.38 8.61Q18.38 6.64 19.17 5.70L19.17 5.70L19.17 5.70Q19.96 4.76 21.63 4.76L21.63 4.76L21.63 4.76Q23.14 4.76 23.84 5.49L23.84 5.49L23.84 5.49Q24.54 6.22 24.54 7.66L24.54 7.66L23.28 7.66L23.28 7.66Q23.28 6.66 22.93 6.22L22.93 6.22L22.93 6.22Q22.57 5.78 21.63 5.78L21.63 5.78L21.63 5.78Q20.61 5.78 20.13 6.45L20.13 6.45L20.13 6.45Q19.66 7.11 19.66 8.61L19.66 8.61L19.66 8.67L19.66 8.67Q19.66 10.15 20.12 10.79L20.12 10.79L20.12 10.79Q20.58 11.44 21.63 11.44L21.63 11.44L21.63 11.44Q22.55 11.44 22.95 10.97L22.95 10.97L22.95 10.97Q23.35 10.50 23.35 9.56L23.35 9.56L24.54 9.56L24.54 9.56Q24.54 10.82 23.83 11.64L23.83 11.64L23.83 11.64Q23.11 12.46 21.63 12.46L21.63 12.46ZM28.78 12.46L28.78 12.46Q27.09 12.46 26.24 11.52L26.24 11.52L26.24 11.52Q25.38 10.57 25.38 8.61L25.38 8.61L25.38 8.61Q25.38 6.65 26.24 5.71L26.24 5.71L26.24 5.71Q27.09 4.76 28.78 4.76L28.78 4.76L28.78 4.76Q30.48 4.76 31.33 5.71L31.33 5.71L31.33 5.71Q32.19 6.65 32.19 8.61L32.19 8.61L32.19 8.61Q32.19 10.57 31.33 11.52L31.33 11.52L31.33 11.52Q30.48 12.46 28.78 12.46L28.78 12.46ZM28.78 11.44L28.78 11.44Q29.90 11.44 30.41 10.79L30.41 10.79L30.41 10.79Q30.91 10.14 30.91 8.67L30.91 8.67L30.91 8.55L30.91 8.55Q30.91 7.08 30.41 6.43L30.41 6.43L30.41 6.43Q29.90 5.78 28.78 5.78L28.78 5.78L28.78 5.78Q27.66 5.78 27.16 6.43L27.16 6.43L27.16 6.43Q26.66 7.08 26.66 8.55L26.66 8.55L26.66 8.67L26.66 8.67Q26.66 10.14 27.16 10.79L27.16 10.79L27.16 10.79Q27.66 11.44 28.78 11.44L28.78 11.44ZM33.61 12.29L33.61 4.93L34.55 4.93L34.69 5.92L34.79 5.92L34.79 5.92Q35.55 4.76 37.00 4.76L37.00 4.76L37.00 4.76Q38.43 4.76 38.91 5.92L38.91 5.92L38.99 5.92L38.99 5.92Q39.37 5.36 39.98 5.06L39.98 5.06L39.98 5.06Q40.59 4.76 41.27 4.76L41.27 4.76L41.27 4.76Q43.44 4.76 43.44 6.99L43.44 6.99L43.44 12.29L42.21 12.29L42.21 7.21L42.21 7.21Q42.21 6.41 41.86 6.10L41.86 6.10L41.86 6.10Q41.51 5.78 40.89 5.78L40.89 5.78L40.89 5.78Q40.15 5.78 39.65 6.37L39.65 6.37L39.65 6.37Q39.14 6.96 39.14 7.94L39.14 7.94L39.14 12.29L37.91 12.29L37.91 7.21L37.91 7.21Q37.91 6.41 37.58 6.10L37.58 6.10L37.58 6.10Q37.24 5.78 36.62 5.78L36.62 5.78L36.62 5.78Q36.15 5.78 35.74 6.04L35.74 6.04L35.74 6.04Q35.34 6.30 35.09 6.79L35.09 6.79L35.09 6.79Q34.85 7.28 34.85 7.94L34.85 7.94L34.85 12.29L33.61 12.29Z"></path></g><!----><!----></svg>