<svg data-v-423bf9ae="" xmlns="http://www.w3.org/2000/svg" viewBox="0 0 355 90" class="iconLeft"><!----><!----><!----><g data-v-423bf9ae="" id="2975f6fb-f38c-4b1d-870b-e58904840182" fill="white" transform="matrix(5.830904006958008,0,0,5.830904006958008,101.16130828857422,2.3469369411468506)"><path d="M0.94 12.29L0.94 2.17L2.17 2.17L2.17 12.29L0.94 12.29ZM7 12.46L7 12.46Q5.31 12.46 4.45 11.52L4.45 11.52L4.45 11.52Q3.60 10.57 3.60 8.61L3.60 8.61L3.60 8.61Q3.60 6.65 4.45 5.71L4.45 5.71L4.45 5.71Q5.31 4.76 7 4.76L7 4.76L7 4.76Q8.69 4.76 9.55 5.71L9.55 5.71L9.55 5.71Q10.40 6.65 10.40 8.61L10.40 8.61L10.40 8.61Q10.40 10.57 9.55 11.52L9.55 11.52L9.55 11.52Q8.69 12.46 7 12.46L7 12.46ZM7 11.44L7 11.44Q8.12 11.44 8.62 10.79L8.62 10.79L8.62 10.79Q9.13 10.14 9.13 8.67L9.13 8.67L9.13 8.55L9.13 8.55Q9.13 7.08 8.62 6.43L8.62 6.43L8.62 6.43Q8.12 5.78 7 5.78L7 5.78L7 5.78Q5.88 5.78 5.38 6.43L5.38 6.43L5.38 6.43Q4.87 7.08 4.87 8.55L4.87 8.55L4.87 8.67L4.87 8.67Q4.87 10.14 5.38 10.79L5.38 10.79L5.38 10.79Q5.88 11.44 7 11.44L7 11.44ZM11.83 12.29L11.83 2.17L13.06 2.17L13.06 12.29L11.83 12.29ZM15.27 12.29L15.27 10.78L16.67 10.78L16.67 12.29L15.27 12.29ZM21.63 12.46L21.63 12.46Q19.95 12.46 19.17 11.53L19.17 11.53L19.17 11.53Q18.38 10.60 18.38 8.61L18.38 8.61L18.38 8.61Q18.38 6.64 19.17 5.70L19.17 5.70L19.17 5.70Q19.96 4.76 21.63 4.76L21.63 4.76L21.63 4.76Q23.14 4.76 23.84 5.49L23.84 5.49L23.84 5.49Q24.54 6.22 24.54 7.66L24.54 7.66L23.28 7.66L23.28 7.66Q23.28 6.66 22.93 6.22L22.93 6.22L22.93 6.22Q22.57 5.78 21.63 5.78L21.63 5.78L21.63 5.78Q20.61 5.78 20.13 6.45L20.13 6.45L20.13 6.45Q19.66 7.11 19.66 8.61L19.66 8.61L19.66 8.67L19.66 8.67Q19.66 10.15 20.12 10.79L20.12 10.79L20.12 10.79Q20.58 11.44 21.63 11.44L21.63 11.44L21.63 11.44Q22.55 11.44 22.95 10.97L22.95 10.97L22.95 10.97Q23.35 10.50 23.35 9.56L23.35 9.56L24.54 9.56L24.54 9.56Q24.54 10.82 23.83 11.64L23.83 11.64L23.83 11.64Q23.11 12.46 21.63 12.46L21.63 12.46ZM28.78 12.46L28.78 12.46Q27.09 12.46 26.24 11.52L26.24 11.52L26.24 11.52Q25.38 10.57 25.38 8.61L25.38 8.61L25.38 8.61Q25.38 6.65 26.24 5.71L26.24 5.71L26.24 5.71Q27.09 4.76 28.78 4.76L28.78 4.76L28.78 4.76Q30.48 4.76 31.33 5.71L31.33 5.71L31.33 5.71Q32.19 6.65 32.19 8.61L32.19 8.61L32.19 8.61Q32.19 10.57 31.33 11.52L31.33 11.52L31.33 11.52Q30.48 12.46 28.78 12.46L28.78 12.46ZM28.78 11.44L28.78 11.44Q29.90 11.44 30.41 10.79L30.41 10.79L30.41 10.79Q30.91 10.14 30.91 8.67L30.91 8.67L30.91 8.55L30.91 8.55Q30.91 7.08 30.41 6.43L30.41 6.43L30.41 6.43Q29.90 5.78 28.78 5.78L28.78 5.78L28.78 5.78Q27.66 5.78 27.16 6.43L27.16 6.43L27.16 6.43Q26.66 7.08 26.66 8.55L26.66 8.55L26.66 8.67L26.66 8.67Q26.66 10.14 27.16 10.79L27.16 10.79L27.16 10.79Q27.66 11.44 28.78 11.44L28.78 11.44ZM33.61 12.29L33.61 4.93L34.55 4.93L34.69 5.92L34.79 5.92L34.79 5.92Q35.55 4.76 37.00 4.76L37.00 4.76L37.00 4.76Q38.43 4.76 38.91 5.92L38.91 5.92L38.99 5.92L38.99 5.92Q39.37 5.36 39.98 5.06L39.98 5.06L39.98 5.06Q40.59 4.76 41.27 4.76L41.27 4.76L41.27 4.76Q43.44 4.76 43.44 6.99L43.44 6.99L43.44 12.29L42.21 12.29L42.21 7.21L42.21 7.21Q42.21 6.41 41.86 6.10L41.86 6.10L41.86 6.10Q41.51 5.78 40.89 5.78L40.89 5.78L40.89 5.78Q40.15 5.78 39.65 6.37L39.65 6.37L39.65 6.37Q39.14 6.96 39.14 7.94L39.14 7.94L39.14 12.29L37.91 12.29L37.91 7.21L37.91 7.21Q37.91 6.41 37.58 6.10L37.58 6.10L37.58 6.10Q37.24 5.78 36.62 5.78L36.62 5.78L36.62 5.78Q36.15 5.78 35.74 6.04L35.74 6.04L35.74 6.04Q35.34 6.30 35.09 6.79L35.09 6.79L35.09 6.79Q34.85 7.28 34.85 7.94L34.85 7.94L34.85 12.29L33.61 12.29Z"></path></g><!----><g data-v-423bf9ae="" id="13c35d06-e18b-4fb9-bb64-e929f8243c97" transform="matrix(1.0298138856887817,0,0,1.0298138856887817,-7.557695388793945,-6.187913417816162)" stroke="none" fill="white"><switch><g><path d="M92.067 64.27C92.07 50 82.924 43.096 72.758 39.104c-8.334-3.271-19.002-7.487-24.507-16.057-5.502-8.569-8.116-13.62-9.2-15.966-1.081-2.345-3.517 1.264-5.681 2.255-2.164.993-6.496 3.067-7.938 3.337-1.444.271.361 3.518 3.606 11.275.275.656.521 1.299.735 1.935-2.379-.384-4.252 1.298-4.252.77 0-.721-.179-3.427-.179-3.427h-.994c.179 4.961-2.347 12.538-2.347 12.538l.543.542.902-.903.812-.18-1.714 5.412h.902s.812-3.518 1.441-3.698a30.71 30.71 0 0 0 1.627-.542c.358-1.894 1.531-7.848 2.164-7.848.502 0 .777-.341 2.053 1.298.703 5.257-1.106 10.184-6.474 16.323C16.954 54.528 7.933 64.27 7.933 73.38c0 9.111 4.258 16.486 12.177 18.671 6.71 1.853 11.893 1.21 16.61-.219.026 1.533 1.439.751 2.331.038.582-.463.706.654.796.925.09.271 2.209-1.241 2.209-1.241.543.723.515 2.42 1.055 1.641.54-.783 1.445-2.768 1.263-1.864-.182.901.541 1.864.541 1.864s.418-1.86.661-1.413c.54.992 1.001 2.004 1.183 1.413.18-.593.818-2.999 1.043-1.794.751 4.035 1.655-2.081 1.655-.022 0 .63-.138 2.118.061 1.816.976-1.511 1.531 0 1.531 0s1.174-2.957 1.264-1.052c.092 1.903.066 1.803.543 1.052 1.289-2.045 1.442-.331 1.621-.873.183-.54.454-1.531.454-1.531l.93 2.164s.18-3.834.991-2.029c.812 1.803 1.423 2.717 1.513 1.482.093-1.23-.295-1.876.425-1.482.723.392.47 1.486.831 1.396.358-.09 1.353-3.562 2.164-1.189.812 2.372.976-.319 1.068-.342.089-.025 1.132 1.886 1.438 1.039.745-2.059 1.55 1.576 1.643.402.09-1.173.09-2.026.63-.968.544 1.058.831.869 1.081-.624.271-1.635 1.163 1.135 1.444.624.361-.656.652-2.28.835-2.479.179-.2 1.039.986 1.33.04.297-.946.751-1.765 1.505-2.786 10.706-3.194 19.304-6.723 19.308-21.769zM34.862 37.178c-.204 1.713-.687 3.404-1.355 4.988-.658 1.591-1.464 3.098-2.32 4.556a82.987 82.987 0 0 1-2.705 4.262 141.406 141.406 0 0 1-2.867 4.111 26.8 26.8 0 0 0-.342.479 17.953 17.953 0 0 0-.898 1.445c-.374.659-.7 1.345-.997 2.043a23.048 23.048 0 0 0-1.343 4.372 27.477 27.477 0 0 0-.544 4.589c-.063 1.547.01 3.104.183 4.651.361 3.088 1.167 6.153 2.525 8.951.688 1.394 1.512 2.721 2.532 3.889 1.02 1.167 2.222 2.174 3.666 2.872 1.487.72 1.199 1.353-.364.998h-.006a10.243 10.243 0 0 1-2.504-.946 12.713 12.713 0 0 1-2.218-1.516c-1.369-1.154-2.51-2.538-3.45-4.023-.473-.74-.901-1.51-1.278-2.3a24.718 24.718 0 0 1-1.017-2.414 26.717 26.717 0 0 1-.768-2.496 26.77 26.77 0 0 1-.537-2.555c-.556-3.43-.527-6.972.208-10.422a23.59 23.59 0 0 1 1.672-5.038c.374-.812.809-1.598 1.285-2.359.24-.38.496-.751.765-1.115.134-.181.269-.361.409-.537.137-.179.284-.356.412-.51 2.106-2.547 4.232-5.074 6.141-7.708.95-1.318 1.842-2.665 2.577-4.073.729-1.41 1.295-2.882 1.595-4.429.304-1.544.355-3.155.291-4.769a33.343 33.343 0 0 0-.604-4.822 47.632 47.632 0 0 0-1.192-4.754 45.79 45.79 0 0 0-.771-2.333 38.132 38.132 0 0 0-.883-2.284l-.003-.006c-.946-2.199.051-2.613 1-.414 0 .007.007.015.007.023.301.792.578 1.569.847 2.357.266.788.519 1.58.765 2.374.243.794.477 1.593.693 2.396.215.804.412 1.612.602 2.425.361 1.627.658 3.275.812 4.953.149 1.671.197 3.374-.021 5.089zm8.469 45.064l-.003-.005a52.02 52.02 0 0 1-4.45-13.18 57.611 57.611 0 0 1-.56-3.462 66.818 66.818 0 0 1-.342-3.491 56.464 56.464 0 0 1-.086-6.979c.057-1.158.149-2.312.269-3.464l.185-1.721c.067-.576.135-1.145.208-1.702.266-2.218.547-4.456.681-6.708a36.543 36.543 0 0 0-.217-6.753 28.448 28.448 0 0 0-.607-3.316c-.271-1.084-.441-1.692-1.026-3.481-.776-2.384-.118-2.701.883-.141.345.88.844 2.237 1.15 3.359.304 1.124.553 2.255.771 3.395.105.569.208 1.139.297 1.71.09.573.17 1.147.253 1.72l.218 1.727c.07.576.137 1.153.198 1.732.246 2.315.383 4.648.297 6.986-.016.58-.048 1.148-.07 1.711l-.063 1.696-.103 3.379c-.064 2.247-.125 4.485-.105 6.72.01 1.117.045 2.232.115 3.349a62.391 62.391 0 0 0 1.032 8.311c.103.55.218 1.1.336 1.649a83.155 83.155 0 0 0 1.748 6.556c.51 1.679-.254 1.934-1.009.403zM64.226 68.62a32.199 32.199 0 0 1-.546 5.683l-.004.001c-.374 1.938-.869 1.845-1.08-.043-.208-1.865-.381-3.7-.598-5.525a98.242 98.242 0 0 0-.787-5.422c-.31-1.79-.69-3.559-1.176-5.294-.479-1.736-1.059-3.439-1.791-5.077-.734-1.632-1.627-3.199-2.739-4.605l-.208-.261-.224-.271-.447-.544-.896-1.083-1.79-2.166a744.435 744.435 0 0 1-7.088-8.722c-1.72-2.141-.872-2.816.845-.679v.001l.003.005a144.775 144.775 0 0 0 3.57 4.302l.915 1.06.927 1.048 1.867 2.084c.62.694 1.26 1.376 1.896 2.056.323.339.64.682.963 1.015l.488.503.243.251.249.266a24.455 24.455 0 0 1 3.443 4.715 28.757 28.757 0 0 1 2.321 5.34 35.015 35.015 0 0 1 1.275 5.638c.276 1.899.394 3.816.369 5.724zm11.732 4.31a36.646 36.646 0 0 1-1.365 4.792 32.718 32.718 0 0 1-.927 2.302 26.6 26.6 0 0 1-1.1 2.219v.003c-.969 1.742-1.519 1.458-1.001-.409.857-3.095 1.506-6.205 1.867-9.322.352-3.113.419-6.233-.013-9.252-.218-1.505-.553-2.983-1.049-4.398-.242-.71-.527-1.4-.854-2.074a18.806 18.806 0 0 0-4.335-5.81l-.438-.387-.905-.784a148.33 148.33 0 0 0-1.831-1.559c-2.468-2.065-4.997-4.096-7.468-6.22a104.156 104.156 0 0 1-3.651-3.262 65.475 65.475 0 0 1-3.456-3.475 55.118 55.118 0 0 1-6-7.738c-1.762-2.75-3.283-5.646-4.606-8.625-.976-2.188.013-2.628.987-.44 0 .004.003.01.007.015 1.215 2.966 2.691 5.83 4.453 8.505a47.525 47.525 0 0 0 6.042 7.439 58.43 58.43 0 0 0 3.529 3.253c1.215 1.041 2.487 2.021 3.77 2.988 2.576 1.921 5.245 3.734 7.886 5.642.659.478 1.317.959 1.97 1.45.655.492 1.301.973 1.969 1.547a19.738 19.738 0 0 1 3.481 3.861c.492.721.934 1.474 1.333 2.248.391.779.732 1.578 1.03 2.394a23.68 23.68 0 0 1 1.186 5.021c.426 3.401.179 6.811-.511 10.076z"></path></g></switch></g><!----></svg>